<svg x="0px" y="0px" width="60px" height="60px" viewBox="0 0 60 60">
	<path d="M33.8,34.3v5c6.7-1.8,11.7-7.9,11.7-15.2c0-8.7-7.1-15.7-15.7-15.7C21.1,8.3,14,15.4,14,24.1
		c0,7.3,5,13.4,11.7,15.2v-5c-4.1-1.6-6.9-5.6-6.9-10.2c0-6,4.9-11,11-11c6,0,11,4.9,11,11C40.7,28.7,37.8,32.7,33.8,34.3z"/>
	<path d="M53.6,24.1c0-13.1-10.7-23.8-23.8-23.8C16.6,0.3,5.9,10.9,5.9,24.1c0,11.8,8.6,21.5,19.8,23.5v-4.8
		c-8.6-1.9-15-9.5-15-18.6c0-10.5,8.5-19,19-19c10.5,0,19,8.5,19,19c0,9.1-6.4,16.8-15,18.6v4.8C45,45.6,53.6,35.8,53.6,24.1z"/>
	<path d="M27.3,39.6V43v4.8V60h4.9V47.8V43v-3.4v-4.8v-3.3c0.3-0.1,0.5-0.2,0.8-0.3c0.3-0.1,0.5-0.3,0.8-0.4
		c2.2-1.4,3.7-3.8,3.7-6.6c0-4.3-3.5-7.8-7.8-7.8S22,19.8,22,24.1c0,2.8,1.5,5.3,3.7,6.6c0.3,0.2,0.5,0.3,0.8,0.4
		c0.3,0.1,0.5,0.2,0.8,0.3v3.3L27.3,39.6L27.3,39.6z M26.9,23.3c0.1-0.3,0.2-0.5,0.3-0.8c0.5-0.9,1.5-1.4,2.6-1.4
		c1.1,0,2,0.6,2.6,1.4c0.2,0.2,0.3,0.5,0.3,0.8c0.1,0.3,0.1,0.5,0.1,0.8c0,0.7-0.2,1.3-0.6,1.8c-0.5,0.8-1.4,1.2-2.4,1.2
		c-1,0-1.9-0.5-2.4-1.2c-0.4-0.5-0.6-1.1-0.6-1.8C26.7,23.8,26.8,23.5,26.9,23.3z"/>
</svg>
